<svg viewBox="0 0 200 200" xmlns="http://www.w3.org/2000/svg">
  <path fill="#4338CA" d="M43,-73.9C55.8,-67,66.4,-55.7,73.8,-42.7C81.1,-29.7,85.2,-14.8,80.4,-2.7C75.7,9.3,62.1,18.7,55.1,32.3C48.1,45.9,47.6,63.8,39.5,69.9C31.4,76,15.7,70.3,3.4,64.4C-8.9,58.5,-17.9,52.5,-32.2,50C-46.6,47.5,-66.3,48.6,-70.7,40.9C-75.1,33.1,-64.2,16.6,-59.8,2.6C-55.3,-11.5,-57.4,-22.9,-54.4,-33C-51.3,-43.1,-43.2,-51.8,-33.2,-60.4C-23.3,-69,-11.7,-77.4,1.7,-80.4C15.1,-83.3,30.1,-80.8,43,-73.9Z" transform="translate(100 100)" />
</svg>