<?xml version="1.0" standalone="no"?>
<!DOCTYPE svg PUBLIC "-//W3C//DTD SVG 20010904//EN"
 "http://www.w3.org/TR/2001/REC-SVG-20010904/DTD/svg10.dtd">
<svg version="1.0" xmlns="http://www.w3.org/2000/svg"
 width="1000.000000pt" height="1000.000000pt" viewBox="0 0 1000.000000 1000.000000"
 preserveAspectRatio="xMidYMid meet">

<g transform="translate(0.000000,1000.000000) scale(0.100000,-0.100000)"
fill="#0f172a" stroke="none">
<path d="M3614 9047 l-1861 -952 -56 -170 -57 -171 2 -2483 3 -2482 1905 -975
c1048 -536 1911 -974 1918 -974 13 0 3490 1775 3504 1788 4 4 -43 105 -103
225 l-110 217 -27 -14 c-15 -7 -751 -384 -1636 -836 -886 -453 -1615 -823
-1621 -823 -6 0 -779 392 -1718 873 l-1707 872 2 1859 3 1859 1709 875 1709
876 1640 -841 c902 -462 1642 -838 1645 -835 17 16 560 1091 554 1096 -4 3
-792 408 -1752 899 -960 491 -1821 932 -1915 981 l-170 88 -1861 -952z"/>
<path d="M1008 7714 l-188 -94 0 -2618 0 -2617 2322 -1189 c1277 -654 2326
-1189 2332 -1189 6 0 850 430 1876 955 1026 525 1889 967 1918 982 l52 27 -75
148 -75 148 -92 -48 c-51 -26 -884 -452 -1851 -947 l-1758 -900 -2117 1083
-2117 1084 -3 2635 c-2 2502 -3 2636 -20 2635 -9 0 -101 -43 -204 -95z"/>
</g>
</svg>
